<svg width="32" height="32" viewBox="0 0 32 32" fill="none" xmlns="http://www.w3.org/2000/svg">
  <path d="M24.0004 7.9998C24.0004 7.9998 21.6015 6.14679 18.6673 5.9998L18.4137 6.50664C21.0804 7.14664 22.2937 8.0732 23.5337 9.1998C21.5337 8.1998 19.5337 7.1998 16.0004 7.1998C12.4671 7.1998 10.4671 8.1998 8.46711 9.1998C9.70711 8.0732 11.1872 7.04664 13.5872 6.50664L13.3337 5.9998C10.2004 6.23314 8.00045 7.9998 8.00045 7.9998C8.00045 7.9998 5.46712 11.6598 5.00045 18.9998C7.46712 21.9998 11.3337 21.9998 11.3337 21.9998L12.1871 20.8932C10.9071 20.4932 9.43377 19.6732 8.00045 17.9998C9.56045 19.1598 11.9337 20.3065 16.0004 20.3065C20.0671 20.3065 22.4404 19.1598 24.0004 17.9998C22.5671 19.6732 21.0938 20.4932 19.8138 20.8932L20.6671 21.9998C20.6671 21.9998 24.5337 21.9998 27.0004 18.9998C26.5337 11.6598 24.0004 7.9998 24.0004 7.9998ZM12.6671 16.9998C11.5625 16.9998 10.6671 15.9998 10.6671 14.6665C10.6671 13.3332 11.5625 12.3332 12.6671 12.3332C13.7718 12.3332 14.6671 13.3332 14.6671 14.6665C14.6671 15.9998 13.7718 16.9998 12.6671 16.9998ZM19.3337 16.9998C18.2291 16.9998 17.3337 15.9998 17.3337 14.6665C17.3337 13.3332 18.2291 12.3332 19.3337 12.3332C20.4384 12.3332 21.3337 13.3332 21.3337 14.6665C21.3337 15.9998 20.4384 16.9998 19.3337 16.9998Z" fill="#5865F2"/>
</svg> 