<svg width="32" height="32" viewBox="0 0 32 32" fill="none" xmlns="http://www.w3.org/2000/svg">
  <path fill-rule="evenodd" clip-rule="evenodd" d="M16 4C9.37333 4 4 9.31333 4 15.8667C4 21.1133 7.388 25.5467 12.048 27.1867C12.668 27.3067 12.888 26.92 12.888 26.5867C12.888 26.2933 12.8747 25.4533 12.8747 24.5733C10 25.1467 9.2 23.92 8.93333 23.2267C8.768 22.8533 8.1 21.84 7.5 21.5467C7.008 21.32 6.388 20.7467 7.48667 20.7333C8.53333 20.72 9.29333 21.4667 9.52 21.8533C10.68 23.6 12.5467 23.2667 12.9333 22.9333C13.0533 22.16 13.4133 21.6267 13.8 21.32C10.9733 21.0133 8.02667 19.88 8.02667 15.3333C8.02667 14.08 8.53333 13.0533 9.54667 12.2533C9.41333 11.9333 8.95333 10.7067 9.66667 9.03333C9.66667 9.03333 10.7467 8.7 12.888 10.2667C13.8953 9.98667 14.9467 9.84667 16 9.84667C17.0533 9.84667 18.1067 9.98667 19.1133 10.2667C21.2533 8.68667 22.3333 9.03333 22.3333 9.03333C23.0467 10.7067 22.5867 11.9333 22.4533 12.2533C23.4667 13.0533 23.9733 14.0667 23.9733 15.3333C23.9733 19.8933 21.0133 21.0133 18.1867 21.32C18.68 21.7067 19.1133 22.4533 19.1133 23.6267C19.1133 25.2933 19.1 26.18 19.1 26.5867C19.1 26.92 19.32 27.32 19.94 27.1867C24.612 25.5467 28 21.1 28 15.8667C28 9.31333 22.6267 4 16 4Z" fill="#24292E"/>
</svg> 