<svg width="32" height="32" viewBox="0 0 32 32" fill="none" xmlns="http://www.w3.org/2000/svg">
  <path d="M28.1667 13.4999H16.5V18.4999H23.1667C22.5556 21.4166 19.9444 23.4999 16.5 23.4999C12.3611 23.4999 9 20.1388 9 15.9999C9 11.861 12.3611 8.49994 16.5 8.49994C18.2222 8.49994 19.7778 9.08327 21 10.0833L24.7778 6.30549C22.3889 4.13883 19.5556 2.83327 16.5 2.83327C9.22223 2.83327 3.33334 8.7222 3.33334 15.9999C3.33334 23.2777 9.22223 29.1666 16.5 29.1666C25.3889 29.1666 30.1667 22.4444 28.7778 13.5833L28.1667 13.4999Z" fill="#4285F4"/>
  <path d="M16.5 2.83327V8.49994C18.2778 8.49994 19.8611 9.11105 21.0833 10.111L24.8611 6.33327C22.3889 4.08327 19.5556 2.83327 16.5 2.83327Z" fill="#EA4335"/>
  <path d="M16.5 23.5C19.9444 23.5 22.5556 21.4167 23.1667 18.5L16.5 18.5V12.5H28.1667C28.1667 12.9167 28.1667 13.25 28.1667 13.5C30.0556 22.6667 24.4444 29.1667 16.5 29.1667C13.3889 29.1667 10.5556 28 8.33337 26.0833L12.5 22.5C13.6944 23.0833 15.0556 23.5 16.5 23.5Z" fill="#34A853"/>
  <path d="M8.33329 16.0001C8.33329 14.7224 8.66663 13.5279 9.24996 12.5001L5.08329 8.91675C3.74996 11.0001 3.33329 13.3334 3.33329 16.0001C3.33329 18.6667 3.91663 21.0834 5.08329 23.0834L9.16663 19.4167C8.63329 18.3889 8.33329 17.2501 8.33329 16.0001Z" fill="#FBBC05"/>
</svg> 