<svg width="32" height="32" viewBox="0 0 32 32" fill="none" xmlns="http://www.w3.org/2000/svg">
  <rect x="4" y="4" width="24" height="24" rx="2" fill="#0A66C2"/>
  <path d="M11.6367 13.3333H8.80337V22.6667H11.6367V13.3333Z" fill="white"/>
  <path d="M10.22 12H10.2013C9.16 12 8.5 11.2933 8.5 10.3667C8.5 9.42 9.1787 8.7333 10.2387 8.7333C11.2987 8.7333 11.94 9.42 11.9587 10.3667C11.9587 11.2933 11.298 12 10.22 12Z" fill="white"/>
  <path d="M23.5007 22.6667H20.6674V17.6C20.6674 16.3933 20.1967 15.56 19.0994 15.56C18.2614 15.56 17.7714 16.12 17.5567 16.6667C17.4754 16.88 17.4554 17.1733 17.4554 17.4667V22.6667H14.622C14.622 22.6667 14.662 14.12 14.622 13.3333H17.4554V14.56C17.8474 13.9467 18.5407 13.08 20.1767 13.08C22.2007 13.08 23.5007 14.36 23.5007 17.2V22.6667Z" fill="white"/>
</svg> 