<svg width="32" height="32" viewBox="0 0 32 32" fill="none" xmlns="http://www.w3.org/2000/svg">
  <path d="M12.667 7.33333C11.5624 7.33333 10.667 8.22876 10.667 9.33333V14.6667C10.667 15.7712 11.5624 16.6667 12.667 16.6667H22C23.1046 16.6667 24 15.7712 24 14.6667V9.33333C24 8.22876 23.1046 7.33333 22 7.33333H12.667Z" fill="#E01E5A"/>
  <path d="M9.33333 19.3333C8.22876 19.3333 7.33333 20.2288 7.33333 21.3333V22.6667C7.33333 23.7712 8.22876 24.6667 9.33333 24.6667H14.6667C15.7712 24.6667 16.6667 23.7712 16.6667 22.6667V21.3333C16.6667 20.2288 15.7712 19.3333 14.6667 19.3333H9.33333Z" fill="#36C5F0"/>
  <path d="M19.3333 9.33333C19.3333 8.22876 20.2288 7.33333 21.3333 7.33333H22.6667C23.7712 7.33333 24.6667 8.22876 24.6667 9.33333V14.6667C24.6667 15.7712 23.7712 16.6667 22.6667 16.6667H21.3333C20.2288 16.6667 19.3333 15.7712 19.3333 14.6667V9.33333Z" fill="#2EB67D"/>
  <path d="M7.33333 12.6667C7.33333 11.5621 8.22876 10.6667 9.33333 10.6667H10.6667C11.7712 10.6667 12.6667 11.5621 12.6667 12.6667V22C12.6667 23.1046 11.7712 24 10.6667 24H9.33333C8.22876 24 7.33333 23.1046 7.33333 22V12.6667Z" fill="#ECB22E"/>
</svg> 